<svg xmlns="http://www.w3.org/2000/svg" viewBox="-32.0 -30.4 64.1 63.1" width="120" height="120"><g><path d="M2.45,-2.55 L30.05,14.69 L30.05,17.97 L2.45,7.09 Z" fill="#fbbf24" stroke="#000" stroke-opacity="0.5" stroke-width="0.4" stroke-linejoin="round"/><path d="M-2.45,-2.55 L-30.05,14.69 L-30.05,17.97 L-2.45,7.09 Z" fill="#fbbf24" stroke="#000" stroke-opacity="0.5" stroke-width="0.4" stroke-linejoin="round"/><path d="M1.72,21.99 L10.82,28.60 L10.82,30.72 L1.72,27.29 Z" fill="#fbbf24" stroke="#000" stroke-opacity="0.5" stroke-width="0.4" stroke-linejoin="round"/><path d="M-1.72,21.99 L-10.82,28.60 L-10.82,30.72 L-1.72,27.29 Z" fill="#fbbf24" stroke="#000" stroke-opacity="0.5" stroke-width="0.4" stroke-linejoin="round"/><path d="M0.00,19.28 L1.44,26.54 L0.00,29.48 L-1.44,26.54 Z" fill="#fbbf24" stroke="#000" stroke-opacity="0.5" stroke-width="0.4" stroke-linejoin="round"/><path d="M0.00,-28.35 L1.59,-22.68 L2.88,-14.74 L2.88,15.88 L0.87,26.08 L0.00,28.35 L-0.87,26.08 L-2.88,15.88 L-2.88,-14.74 L-1.59,-22.68 Z" fill="#fbbf24" stroke="#000" stroke-opacity="0.5" stroke-width="0.4" stroke-linejoin="round"/><path d="M8.96,5.32 L10.87,5.32 L10.87,10.99 L8.96,10.99 Z" fill="#241a02"/><path d="M-10.87,5.32 L-8.96,5.32 L-8.96,10.99 L-10.87,10.99 Z" fill="#241a02"/></g></svg>